<svg width="408" height="430" viewBox="0 0 408 430" fill="none" xmlns="http://www.w3.org/2000/svg">
<rect width="408" height="430" fill="#E5E5E5"/>
<g id="undraw_enter_uhqk 1">
<g id="about-svg">
<path id="Vector" d="M277.528 266.393C499.991 407.953 427.69 460.702 138.764 412.659C63.272 400.107 0 347.174 0 266.393C0 185.612 62.1269 120.126 138.764 120.126C215.401 120.126 206.933 221.471 277.528 266.393Z" fill="#3F3D56"/>
<path id="Vector_2" opacity="0.1" d="M297.418 404.301C345.955 404.301 385.302 400.953 385.302 396.823C385.302 392.693 345.955 389.345 297.418 389.345C248.881 389.345 209.534 392.693 209.534 396.823C209.534 400.953 248.881 404.301 297.418 404.301Z" fill="black"/>
<path id="Vector_3" opacity="0.1" d="M124.091 157.805C149.817 157.805 170.672 154.457 170.672 150.326C170.672 146.196 149.817 142.848 124.091 142.848C98.3653 142.848 77.5103 146.196 77.5103 150.326C77.5103 154.457 98.3653 157.805 124.091 157.805Z" fill="black"/>
<path id="Vector_4" opacity="0.1" d="M121.65 168.736C101.664 168.732 82.0837 174.106 65.1722 184.236C48.2608 194.366 34.7076 208.84 26.0784 225.984C35.9977 215.563 48.1058 207.236 61.6202 201.542C75.1345 195.849 89.7546 192.915 104.536 192.93C163.034 192.93 210.459 238.033 210.459 293.667C210.483 308.719 206.945 323.582 200.107 337.156C217.815 318.641 227.611 294.502 227.573 269.473C227.573 213.839 180.148 168.736 121.65 168.736Z" fill="black"/>
<path id="Vector_5" opacity="0.3" d="M210.459 293.228C210.483 308.279 206.945 323.142 200.107 336.716C190.188 347.138 178.08 355.465 164.565 361.158C151.051 366.852 136.431 369.786 121.65 369.77C63.1516 369.77 15.7266 324.667 15.7266 269.033C15.7027 253.982 19.2407 239.119 26.0784 225.545C35.9977 215.123 48.1058 206.796 61.6201 201.102C75.1345 195.409 89.7546 192.475 104.536 192.491C163.034 192.491 210.459 237.593 210.459 293.228Z" fill="#6C63FF"/>
<path id="Vector_6" d="M121.65 370.265C62.9566 370.265 15.2061 324.853 15.2061 269.033C15.1634 253.906 18.7199 238.965 25.6091 225.331C34.2808 208.102 47.9005 193.557 64.895 183.377C81.8895 173.197 101.565 167.797 121.65 167.801C180.343 167.801 228.094 213.214 228.094 269.033C228.095 282.327 225.342 295.492 219.993 307.774C214.644 320.056 206.803 331.216 196.919 340.617C187.035 350.017 175.3 357.474 162.385 362.561C149.471 367.648 135.629 370.266 121.65 370.265V370.265ZM121.65 168.791C81.3203 168.791 43.9902 191.152 26.5478 225.759C19.726 239.26 16.2045 254.054 16.247 269.033C16.247 324.307 63.5305 369.275 121.65 369.275C135.492 369.276 149.199 366.684 161.987 361.646C174.776 356.609 186.395 349.225 196.183 339.917C205.971 330.608 213.735 319.557 219.031 307.395C224.328 295.233 227.054 282.197 227.053 269.033C227.053 213.759 179.769 168.791 121.65 168.791V168.791Z" fill="white"/>
<path id="Vector_7" d="M363.984 371.544C356.291 381.113 357.171 394.045 357.171 394.045C357.171 394.045 370.523 391.463 378.217 381.894C385.91 372.325 385.03 359.393 385.03 359.393C385.03 359.393 371.677 361.975 363.984 371.544Z" fill="#D0CDE1"/>
<path id="Vector_8" d="M369.026 373.693C367.533 385.654 357.427 394.347 357.427 394.347C357.427 394.347 349.741 383.646 351.234 371.685C352.727 359.723 362.833 351.031 362.833 351.031C362.833 351.031 370.518 361.732 369.026 373.693Z" fill="#6C63FF"/>
<path id="Vector_9" d="M89.9493 93.4954C114.088 93.4954 133.657 74.885 133.657 51.928C133.657 28.9709 114.088 10.3605 89.9493 10.3605C65.8104 10.3605 46.2419 28.9709 46.2419 51.928C46.2419 74.885 65.8104 93.4954 89.9493 93.4954Z" fill="#FF659C"/>
<path id="Vector_10" d="M184.711 94.3087C184.732 135.829 158.785 150.337 126.772 150.351C126.028 150.352 125.288 150.344 124.551 150.329C123.068 150.299 121.6 150.235 120.147 150.138C91.2527 148.206 68.795 132.976 68.7753 94.3622C68.7549 54.4016 122.431 3.94727 126.457 0.21665C126.46 0.21665 126.46 0.216649 126.464 0.213259C126.617 0.0710777 126.695 0 126.695 0C126.695 0 184.689 52.7916 184.711 94.3087Z" fill="#6C63FF"/>
<path id="Vector_11" d="M124.659 144.001L145.845 115.819L124.607 147.094L124.551 150.329C123.068 150.299 121.6 150.235 120.147 150.138L122.41 108.599L122.392 108.278L122.431 108.217L122.646 104.292L101.322 72.9593L122.708 101.352L122.762 102.184L124.472 70.8L106.214 38.4204L124.693 65.2846L126.456 0.216663L126.463 0.00012207L126.464 0.213272L126.191 51.5261L144.336 31.1753L126.115 55.9451L125.649 84.0463L142.595 57.071L125.584 88.1778L125.325 103.803L149.918 66.2542L125.231 109.255L124.659 144.001Z" fill="#3F3D56"/>
<path id="Vector_12" d="M137.164 321.136C129.594 325.821 120.87 328.548 111.853 329.048C102.836 329.547 93.8384 327.802 85.7474 323.984L86.8929 321.762C96.6456 326.319 107.7 327.71 118.363 325.724C129.026 323.737 138.711 318.482 145.936 310.763C153.16 303.044 157.525 293.286 158.364 282.983C159.202 272.679 156.467 262.399 150.578 253.714C144.688 245.03 135.969 238.42 125.754 234.897C115.539 231.374 104.391 231.132 94.0177 234.207C83.644 237.282 74.6157 243.505 68.3148 251.924C62.0138 260.343 58.7874 270.494 59.1295 280.823L56.5283 280.899C56.2401 272.208 58.3521 263.598 62.6538 255.925C66.9554 248.253 73.2964 241.786 81.0447 237.171C88.793 232.556 97.678 229.952 106.814 229.62C115.95 229.289 125.018 231.24 133.114 235.28C141.21 239.319 148.051 245.307 152.955 252.645C157.86 259.983 160.656 268.415 161.066 277.102C161.476 285.788 159.485 294.425 155.291 302.151C151.097 309.877 144.847 316.423 137.164 321.136V321.136Z" fill="white"/>
<path id="Vector_13" d="M113.625 276.381C105.93 278.001 95.6885 278.988 88.2262 277.957L97.5939 284.741L71.3689 300.828L72.7793 302.907L99.0044 286.821L101.641 297.738C103.731 290.847 108.901 282.382 113.625 276.381Z" fill="white"/>
<path id="Vector_14" d="M249.52 262.7C249.52 262.7 260.292 285.556 251.996 284.838C243.7 284.12 240.481 262.7 240.481 262.7H249.52Z" fill="#A0616A"/>
<path id="Vector_15" d="M319.975 260.319C319.975 260.319 315.249 285.015 323.118 282.377C330.988 279.74 328.745 258.204 328.745 258.204L319.975 260.319Z" fill="#A0616A"/>
<path id="Vector_16" d="M309.698 254.683C309.698 254.683 315.518 266.769 310.936 304.702C310.936 304.702 312.298 318.104 311.184 320.617C310.069 323.13 300.906 357.233 300.906 357.233C300.906 357.233 289.143 359.746 287.533 352.207C287.533 352.207 289.143 341.438 289.019 339.763C288.896 338.087 291.62 319.779 291.62 319.779L286.048 284.359L281.838 316.309C281.838 316.309 281.838 325.523 280.476 327.557C279.113 329.591 280.476 370.516 280.476 370.516C280.476 370.516 284.314 376.738 278.494 376.858C272.675 376.977 267.474 376.738 266.979 372.789C266.483 368.84 266.236 364.892 264.998 362.498C263.759 360.105 262.15 332.702 262.521 323.13C262.893 313.557 254.349 264.376 257.073 259.23C259.797 254.085 309.698 254.683 309.698 254.683Z" fill="#2F2E41"/>
<path id="Vector_17" d="M282.333 161.825C290.539 161.825 297.192 155.396 297.192 147.466C297.192 139.535 290.539 133.106 282.333 133.106C274.127 133.106 267.474 139.535 267.474 147.466C267.474 155.396 274.127 161.825 282.333 161.825Z" fill="#A0616A"/>
<path id="Vector_18" d="M267.474 170.8C267.474 170.8 276.513 177.262 289.638 172.116C289.638 172.116 293.972 170.082 293.601 166.971C293.229 163.859 302.64 191.98 302.64 191.98L312.174 240.922L311.679 260.905C311.679 260.905 307.469 258.871 294.344 263.418C281.219 267.965 259.797 258.273 259.797 258.273L260.54 206.938L261.283 177.022L263.264 170.441C263.264 170.441 264.255 168.646 267.474 170.8Z" fill="#F2F2F2"/>
<path id="Vector_19" d="M289.061 162.767C289.061 162.767 291.248 162.424 293.353 165.654C295.458 168.885 300.411 170.92 300.411 170.92C300.411 170.92 312.422 171.638 314.155 177.86C315.889 184.082 320.223 192.578 322.328 208.254C324.433 223.93 328.643 248.939 329.262 250.973C329.881 253.008 328.395 259.23 330.129 261.145C331.862 263.059 317.87 263.059 317.87 263.059C317.87 263.059 316.632 253.247 315.765 253.247C314.898 253.247 315.146 259.828 316.013 264.615C316.88 269.401 309.698 264.615 309.698 264.615C309.698 264.615 304.126 242.717 298.801 222.973C293.477 203.228 290.381 192.339 291.372 187.912C292.363 183.484 295.087 170.8 293.106 169.603C291.124 168.407 289.061 162.767 289.061 162.767Z" fill="#2D2C3E"/>
<path id="Vector_20" d="M271.204 162.756C271.204 162.756 267.969 164.458 259.797 170.082C251.625 175.706 246.053 180.014 246.053 180.014C246.053 180.014 242.833 182.407 240.852 196.647C238.871 210.887 234.413 247.743 236.147 252.409C237.88 257.076 238.5 259.828 237.88 262.581C237.261 265.333 250.882 265.213 251.13 264.615C251.377 264.017 250.758 253.127 251.377 252.888C251.996 252.649 255.34 259.35 255.959 264.974C256.578 270.598 263.759 275.025 265.369 275.025C266.979 275.025 275.275 242.597 275.399 220.46C275.523 198.322 272.675 179.655 270.57 177.022C268.465 174.39 271.204 162.756 271.204 162.756Z" fill="#2B2A3D"/>
<path id="Vector_21" d="M292.982 358.31C292.982 358.31 293.972 355.678 297.439 356.515C300.906 357.353 303.259 354.361 303.259 354.361C303.259 354.361 305.116 354.122 303.878 356.396C302.64 358.669 301.649 360.225 301.649 360.225C301.649 360.225 309.079 376.618 304.25 380.567C299.42 384.516 293.848 382.123 293.848 382.123C293.848 382.123 288.4 378.413 288.648 368.601C288.648 368.601 288.4 365.49 285.428 360.464C282.457 355.438 280.228 347.78 283.819 346.344C287.41 344.908 288.334 344.855 288.334 344.855C288.334 344.855 286.654 352.282 290.994 354.877L292.982 358.31Z" fill="#78778C"/>
<path id="Vector_22" d="M269.951 376.858C269.951 376.858 266.979 371.473 271.932 370.875C276.885 370.276 282.209 369.917 281.961 372.43C281.714 374.943 281.095 378.772 281.095 378.772L281.961 381.525C281.961 381.525 282.209 388.345 283.076 389.183C283.943 390.021 288.648 397.2 278.618 397.2C268.589 397.2 265.617 396.123 266.484 393.85C267.35 391.576 267.598 380.328 267.598 380.328L269.951 376.858Z" fill="#737283"/>
<path id="Vector_23" d="M277.628 135.978C277.628 135.978 284.562 137.773 288.153 138.491C291.743 139.209 291.372 137.175 291.372 137.175C291.372 137.175 296.077 137.773 295.83 137.295C295.582 136.816 297.811 134.303 295.21 131.431C292.61 128.559 293.353 126.405 293.353 126.405H291.124L290.505 125.568H287.038C287.038 125.568 277.628 118 277.628 125.568C267.474 119 261.531 126.764 260.788 130.713C260.045 134.662 256.206 139.568 257.568 141.842C258.93 144.115 266.731 153.449 267.474 157.398C268.217 161.347 271.686 162.224 271.561 159.751C271.436 157.278 267.969 148.662 270.941 148.303C273.913 147.944 278.99 140.645 277.628 135.978Z" fill="#252433"/>
<path id="Vector_24" d="M287.901 153.794C287.901 153.794 287.778 165.282 292.359 165.88C296.94 166.478 289.759 172.581 289.759 172.581L281.586 174.137L269.823 173.299L264.623 166.837C264.623 166.837 273.786 162.649 269.823 149.606L287.901 153.794Z" fill="#A0616A"/>
</g>
</g>
</svg>
