<svg width="572" height="371" viewBox="0 0 572 371" fill="none" xmlns="http://www.w3.org/2000/svg">
<rect width="572" height="371" fill="#E5E5E5"/>
<g id="home-svg">
<g id="undraw_web_developer_p3e5 1" clip-path="url(#clip0)">
<path id="Vector" d="M76.9359 295.634H96.5195L144.779 278.182C144.779 278.182 179.051 265.255 176.253 289.817C173.455 314.378 168.559 347.342 168.559 347.342C168.559 347.342 153.172 340.879 144.779 342.818C136.386 344.757 141.982 303.39 141.982 303.39C141.982 303.39 73.4388 333.769 67.144 329.891C60.8493 326.013 59.4504 298.866 59.4504 298.866L76.9359 295.634Z" fill="#2F2E41"/>
<path id="Vector_2" opacity="0.1" d="M76.9359 295.634H96.5195L144.779 278.182C144.779 278.182 179.051 265.255 176.253 289.817C173.455 314.378 168.559 347.342 168.559 347.342C168.559 347.342 153.172 340.879 144.779 342.818C136.386 344.757 141.982 303.39 141.982 303.39C141.982 303.39 73.4388 333.769 67.144 329.891C60.8493 326.013 59.4504 298.866 59.4504 298.866L76.9359 295.634Z" fill="#9E8E8E"/>
<path id="Vector_3" d="M107.79 238.957L131.49 270.426L186.744 313.086C186.744 313.086 237.802 324.074 230.808 331.83C223.813 339.586 181.149 324.074 181.149 324.074C181.149 324.074 117.502 281.414 115.404 278.182C113.306 274.95 90.2248 244.571 90.2248 244.571L107.79 238.957Z" fill="#A0616A"/>
<path id="Vector_4" opacity="0.1" d="M107.79 238.957L131.49 270.426L186.744 313.086C186.744 313.086 237.802 324.074 230.808 331.83C223.813 339.586 181.149 324.074 181.149 324.074C181.149 324.074 117.502 281.414 115.404 278.182C113.306 274.95 90.2248 244.571 90.2248 244.571L107.79 238.957Z" fill="black"/>
<path id="Vector_5" d="M93.7219 213.546L109.109 241.34C109.109 241.34 105.612 254.913 100.017 256.206C94.4213 257.499 70.6411 239.401 70.6411 239.401L93.7219 213.546Z" fill="#D0CDE1"/>
<path id="Vector_6" opacity="0.1" d="M93.7219 213.546L109.109 241.34C109.109 241.34 105.612 254.913 100.017 256.206C94.4213 257.499 70.6411 239.401 70.6411 239.401L93.7219 213.546Z" fill="#544C4C"/>
<path id="Vector_7" d="M281.439 281.243L285.984 298.57C286.035 298.763 286.027 298.966 285.961 299.155L265.343 358.699C265.261 358.935 265.095 359.138 264.871 359.274C264.647 359.41 264.379 359.471 264.113 359.446C263.846 359.422 263.597 359.314 263.406 359.14C263.215 358.966 263.094 358.738 263.064 358.492L260.212 335.295C260.193 335.141 260.21 334.985 260.262 334.838L279.187 281.163C279.266 280.939 279.422 280.745 279.631 280.61C279.84 280.476 280.091 280.408 280.346 280.417C280.601 280.426 280.845 280.512 281.042 280.661C281.239 280.81 281.379 281.014 281.439 281.243Z" fill="#2F2E41"/>
<path id="Vector_8" d="M279.767 282.707L283.963 297.573L265.778 351.867L261.582 335.062L279.767 282.707Z" fill="#F2F2F2"/>
<path id="Vector_9" d="M188.143 363.501C188.843 365.441 260.882 362.855 261.582 362.209C262.192 361.399 262.707 360.533 263.121 359.623C263.778 358.331 264.38 357.038 264.38 357.038L261.582 336.109L190.241 333.769C190.241 333.769 188.458 351.505 188.094 359.623C188.003 361.672 188.003 363.114 188.143 363.501Z" fill="#2F2E41"/>
<path id="Vector_10" opacity="0.1" d="M252.49 338.94L253.888 357.038H222.415V338.94H252.49Z" fill="black"/>
<path id="Vector_11" opacity="0.1" d="M211.924 344.757L212.111 344.723L211.224 352.514H193.739V344.757H211.924Z" fill="black"/>
<path id="Vector_12" opacity="0.1" d="M188.143 363.501C188.843 365.441 260.882 362.855 261.582 362.209C262.192 361.399 262.707 360.533 263.121 359.623H188.094C188.003 361.672 188.003 363.114 188.143 363.501Z" fill="black"/>
<path id="Vector_13" d="M104.213 204.497C121.596 204.497 135.687 191.475 135.687 175.411C135.687 159.347 121.596 146.325 104.213 146.325C86.8307 146.325 72.7394 159.347 72.7394 175.411C72.7394 191.475 86.8307 204.497 104.213 204.497Z" fill="#B06C76"/>
<path id="Vector_14" d="M102.115 201.265C102.115 201.265 91.6236 218.071 89.5254 227.12C87.4271 236.169 58.0516 209.022 58.0516 209.022L54.2048 199.649C54.2048 199.649 81.8318 187.692 79.7335 177.996C77.6353 168.301 102.115 201.265 102.115 201.265Z" fill="#B36D77"/>
<path id="Vector_15" d="M107.71 251.681L136.386 286.585L204.929 333.769C204.929 333.769 254.588 343.464 243.397 350.574C232.206 357.684 200.033 344.111 200.033 344.111C200.033 344.111 130.791 309.854 116.103 295.634C101.415 281.414 74.1382 257.499 74.1382 257.499L107.71 251.681Z" fill="#A0616A"/>
<path id="Vector_16" d="M69.2423 305.976L77.6353 318.256L127.726 303.693C138.716 300.498 150.768 301.673 160.516 307.349C169.259 312.439 174.854 320.519 162.265 332.476C137.086 356.392 120.3 343.464 120.3 343.464C120.3 343.464 35.6703 380.307 21.6819 362.209C7.6936 344.111 6.9942 335.062 6.9942 335.062C6.9942 335.062 60.8493 304.036 69.2423 305.976Z" fill="#484756"/>
<path id="Vector_17" d="M174.155 348.635C174.155 348.635 196.536 362.209 169.958 368.672C143.38 375.136 123.797 366.087 123.797 366.087C123.797 366.087 100.716 366.087 100.716 355.099C100.716 344.111 108.41 342.818 108.41 342.818L132.19 346.05C132.19 346.05 160.866 338.94 174.155 348.635Z" fill="#D0CDE1"/>
<path id="Vector_18" d="M130.033 168.094C132.175 168.977 134.299 170.021 136.628 170.277C138.957 170.534 141.609 169.782 142.711 167.869C143.306 166.835 143.374 165.62 143.402 164.449C143.486 160.9 143.209 157.063 140.775 154.316C139.226 152.568 136.965 151.466 135.361 149.761C134.213 148.539 133.448 147.057 132.625 145.629C129.507 140.216 112.693 135.015 106.277 133.455C103.597 132.803 95.896 133.455 95.896 133.455L87.499 133.455C90.0022 132.755 84.8842 133.489 87.499 133.455C82.2982 134.908 77.2945 139.35 73.8263 143.215C71.2316 146.107 68.6301 149.029 66.6828 152.326C63.8909 157.138 62.4792 162.531 62.5822 167.99C62.5605 169.39 62.7561 170.786 63.163 172.135C63.6391 173.372 65.6457 182.387 66.3427 183.531C69.3729 189.032 69.7553 188.084 66.3427 193.39C72.2707 191.152 78.136 188.218 82.0464 183.531C83.7958 181.435 85.1677 178.981 87.499 177.443C89.8304 175.904 93.6291 175.771 95.1248 178.029C95.639 178.942 95.9037 179.958 95.896 180.987C96.0053 182.682 96.0023 184.442 96.7798 185.98C97.5573 187.518 99.4094 188.759 101.178 188.299C104.223 187.506 103.931 183.187 106.277 181.225C108.058 179.735 110.806 180.02 113.094 179.343C115.761 178.555 117.761 176.421 118.901 174.058C119.768 172.262 119.755 167.562 121.395 166.59C123.451 165.37 128.127 167.309 130.033 168.094Z" fill="#2F2E41"/>
<path id="Vector_19" d="M51.7064 196.583C53.1223 196.234 54.613 196.238 56.0269 196.594C60.5166 197.708 70.5813 200.656 72.7393 205.143C75.537 210.961 85.3288 220.01 85.3288 220.01C85.3288 220.01 98.6178 232.291 95.8201 240.693C93.0224 249.096 82.5312 258.791 82.5312 258.791C82.5312 258.791 85.3288 298.866 71.3405 309.207C57.3522 319.549 51.7568 312.439 51.7568 322.135C51.7568 331.83 8.39301 362.209 0 343.464C0 343.464 4.1965 308.561 2.79767 296.28C1.41901 284.176 3.43729 208.66 51.7064 196.583Z" fill="#E2E1EB"/>
<path id="Vector_20" d="M74.1382 212.9C74.1382 212.9 116.803 241.986 109.109 254.267C109.109 254.267 83.2306 265.901 77.6353 265.255C72.04 264.609 50.358 241.986 44.7627 240.047C39.1674 238.108 36.3697 203.204 74.1382 212.9Z" fill="#DEDBEC"/>
<path id="Vector_21" d="M272.052 139.862C291.134 139.862 306.604 125.566 306.604 107.931C306.604 90.2959 291.134 76 272.052 76C252.969 76 237.5 90.2959 237.5 107.931C237.5 125.566 252.969 139.862 272.052 139.862Z" fill="url(#paint0_linear)"/>
<path id="Vector_22" d="M550.134 75.1801H356.512V37.7378H550.134V75.1801ZM357.365 74.3918H549.282V38.5261H357.365V74.3918Z" fill="#3F3D56"/>
<path id="Vector_23" d="M549.77 38H357V74.654H549.77V38Z" fill="url(#paint1_linear)"/>
<path id="Vector_24" d="M221.985 9.51787C223.634 9.51787 224.971 8.28265 224.971 6.75894C224.971 5.23522 223.634 4 221.985 4C220.337 4 219 5.23522 219 6.75894C219 8.28265 220.337 9.51787 221.985 9.51787Z" fill="#FFF963"/>
<path id="Vector_25" d="M242.985 9.01787C244.634 9.01787 245.971 7.78265 245.971 6.25894C245.971 4.73522 244.634 3.5 242.985 3.5C241.337 3.5 240 4.73522 240 6.25894C240 7.78265 241.337 9.01787 242.985 9.01787Z" fill="#FF3636"/>
<path id="Vector_26" d="M572 215.983H212.903V0H572V215.983ZM213.756 215.194H571.147V0.788258H213.756V215.194Z" fill="#3F3D56"/>
<path id="Vector_27" d="M571.573 11.9559H213.329V12.7441H571.573V11.9559Z" fill="#3F3D56"/>
<path id="Vector_28" d="M222.285 9.45909C221.61 9.45909 220.951 9.27417 220.39 8.92771C219.829 8.58125 219.391 8.08881 219.133 7.51267C218.875 6.93653 218.807 6.30256 218.939 5.69094C219.071 5.07931 219.395 4.51749 219.873 4.07653C220.35 3.63557 220.958 3.33528 221.62 3.21362C222.281 3.09196 222.967 3.1544 223.591 3.39304C224.214 3.63169 224.747 4.03582 225.122 4.55433C225.497 5.07285 225.697 5.68245 225.697 6.30606C225.696 7.142 225.336 7.94342 224.697 8.53452C224.057 9.12562 223.19 9.45812 222.285 9.45909ZM222.285 3.94129C221.779 3.94129 221.284 4.07998 220.864 4.33982C220.443 4.59967 220.115 4.969 219.921 5.40111C219.727 5.83321 219.677 6.30869 219.775 6.76741C219.874 7.22613 220.118 7.64749 220.476 7.97821C220.834 8.30893 221.29 8.53415 221.786 8.6254C222.282 8.71664 222.797 8.66981 223.264 8.49083C223.732 8.31184 224.132 8.00874 224.413 7.61986C224.694 7.23097 224.844 6.77377 224.844 6.30606C224.843 5.67911 224.573 5.07804 224.094 4.63472C223.614 4.1914 222.964 3.94202 222.285 3.94129V3.94129Z" fill="#3F3D56"/>
<g id="Vector_29">
<path d="M232.521 9.45909C231.846 9.45909 231.186 9.27417 230.625 8.92771C230.064 8.58125 229.627 8.08881 229.369 7.51267C229.11 6.93653 229.043 6.30256 229.174 5.69094C229.306 5.07931 229.631 4.51749 230.108 4.07653C230.585 3.63557 231.193 3.33528 231.855 3.21362C232.517 3.09196 233.203 3.1544 233.826 3.39304C234.45 3.63169 234.983 4.03582 235.358 4.55433C235.732 5.07285 235.933 5.68245 235.933 6.30606C235.932 7.142 235.572 7.94342 234.932 8.53452C234.293 9.12562 233.425 9.45812 232.521 9.45909ZM232.521 3.94129C232.015 3.94129 231.52 4.07998 231.099 4.33982C230.678 4.59967 230.35 4.969 230.157 5.40111C229.963 5.83321 229.912 6.30869 230.011 6.76741C230.11 7.22613 230.353 7.64749 230.711 7.97821C231.069 8.30893 231.525 8.53415 232.022 8.6254C232.518 8.71664 233.032 8.66981 233.5 8.49083C233.968 8.31184 234.367 8.00874 234.648 7.61986C234.93 7.23097 235.08 6.77377 235.08 6.30606C235.079 5.67911 234.809 5.07804 234.329 4.63472C233.85 4.1914 233.199 3.94202 232.521 3.94129Z" fill="#3F3D56"/>
<path d="M232.521 9.45909C231.846 9.45909 231.186 9.27417 230.625 8.92771C230.064 8.58125 229.627 8.08881 229.369 7.51267C229.11 6.93653 229.043 6.30256 229.174 5.69094C229.306 5.07931 229.631 4.51749 230.108 4.07653C230.585 3.63557 231.193 3.33528 231.855 3.21362C232.517 3.09196 233.203 3.1544 233.826 3.39304C234.45 3.63169 234.983 4.03582 235.358 4.55433C235.732 5.07285 235.933 5.68245 235.933 6.30606C235.932 7.142 235.572 7.94342 234.932 8.53452C234.293 9.12562 233.425 9.45812 232.521 9.45909ZM232.521 3.94129C232.015 3.94129 231.52 4.07998 231.099 4.33982C230.678 4.59967 230.35 4.969 230.157 5.40111C229.963 5.83321 229.912 6.30869 230.011 6.76741C230.11 7.22613 230.353 7.64749 230.711 7.97821C231.069 8.30893 231.525 8.53415 232.022 8.6254C232.518 8.71664 233.032 8.66981 233.5 8.49083C233.968 8.31184 234.367 8.00874 234.648 7.61986C234.93 7.23097 235.08 6.77377 235.08 6.30606C235.079 5.67911 234.809 5.07804 234.329 4.63472C233.85 4.1914 233.199 3.94202 232.521 3.94129Z" stroke="black"/>
</g>
<path id="Vector_30" d="M242.756 9.45909C242.082 9.45909 241.422 9.27417 240.861 8.92771C240.3 8.58125 239.862 8.08882 239.604 7.51268C239.346 6.93654 239.278 6.30257 239.41 5.69094C239.542 5.07931 239.867 4.51749 240.344 4.07653C240.821 3.63557 241.429 3.33528 242.091 3.21362C242.753 3.09196 243.439 3.1544 244.062 3.39304C244.685 3.63168 245.218 4.03581 245.593 4.55433C245.968 5.07284 246.168 5.68245 246.168 6.30606C246.167 7.14199 245.807 7.94342 245.168 8.53452C244.528 9.12562 243.661 9.45812 242.756 9.45909V9.45909ZM242.756 3.94129C242.25 3.94129 241.755 4.07998 241.335 4.33982C240.914 4.59967 240.586 4.96899 240.392 5.4011C240.199 5.8332 240.148 6.30868 240.247 6.7674C240.345 7.22612 240.589 7.64749 240.947 7.97821C241.305 8.30893 241.761 8.53415 242.257 8.6254C242.753 8.71664 243.268 8.66981 243.736 8.49083C244.203 8.31184 244.603 8.00874 244.884 7.61986C245.165 7.23097 245.315 6.77377 245.315 6.30606C245.314 5.67911 245.045 5.07804 244.565 4.63472C244.085 4.1914 243.435 3.94202 242.756 3.94129V3.94129Z" fill="#3F3D56"/>
<path id="Vector_31" d="M326.23 12.35H325.377V215.894H326.23V12.35Z" fill="#3F3D56"/>
<path id="Vector_32" d="M432.693 110H370V117.883H432.693V110Z" fill="#F2F2F2"/>
<path id="Vector_33" d="M530.693 109H468V116.883H530.693V109Z" fill="#F2F2F2"/>
<path id="Vector_34" d="M432.639 116.761H369.093V108.09H432.639V116.761ZM369.946 115.972H431.786V108.878H369.946V115.972Z" fill="#3F3D56"/>
<path id="Vector_35" d="M431.783 169.18H369.09V177.063H431.783V169.18Z" fill="#F2F2F2"/>
<path id="Vector_36" d="M432.639 177.851H369.093V169.18H432.639V177.851ZM369.946 177.062H431.786V169.968H369.946V177.062Z" fill="#3F3D56"/>
<path id="Vector_37" d="M531.53 140.18H370.32V148.063H531.53V140.18Z" fill="#F2F2F2"/>
<path id="Vector_38" d="M531.369 147.306H369.306V138.635H531.369V147.306ZM370.159 146.517H530.516V139.423H370.159V146.517Z" fill="#3F3D56"/>
<path id="Vector_39" d="M531.156 116.761H467.61V108.09H531.156V116.761ZM468.463 115.972H530.303V108.878H468.463V115.972Z" fill="#3F3D56"/>
<path id="Vector_40" d="M270.602 140.229C263.663 140.229 256.88 138.328 251.11 134.765C245.341 131.202 240.844 126.139 238.189 120.214C235.533 114.29 234.838 107.771 236.192 101.482C237.546 95.1926 240.887 89.4155 245.794 84.8812C250.7 80.3469 256.952 77.259 263.757 76.008C270.563 74.757 277.617 75.3991 284.027 77.853C290.438 80.307 295.917 84.4626 299.772 89.7944C303.627 95.1261 305.685 101.395 305.685 107.807C305.674 116.403 301.975 124.644 295.398 130.722C288.82 136.8 279.903 140.219 270.602 140.229ZM270.602 76.3675C263.873 76.3675 257.295 78.2114 251.701 81.6661C246.106 85.1207 241.746 90.0309 239.171 95.7757C236.596 101.52 235.922 107.842 237.235 113.941C238.548 120.039 241.788 125.641 246.546 130.038C251.303 134.435 257.365 137.429 263.964 138.642C270.564 139.856 277.404 139.233 283.621 136.853C289.837 134.474 295.15 130.444 298.888 125.274C302.627 120.104 304.622 114.025 304.622 107.807C304.612 99.4717 301.024 91.4804 294.646 85.5864C288.268 79.6924 279.621 76.377 270.602 76.3675Z" fill="#3F3D56"/>
<path id="Vector_41" d="M232.485 9.01787C234.134 9.01787 235.471 7.78265 235.471 6.25894C235.471 4.73522 234.134 3.5 232.485 3.5C230.837 3.5 229.5 4.73522 229.5 6.25894C229.5 7.78265 230.837 9.01787 232.485 9.01787Z" fill="#05FF00"/>
</g>
</g>
<defs>
<linearGradient id="paint0_linear" x1="297" y1="76" x2="237" y2="140" gradientUnits="userSpaceOnUse">
<stop stop-color="#F41BD2"/>
<stop offset="1" stop-color="#6436E7"/>
</linearGradient>
<linearGradient id="paint1_linear" x1="534.5" y1="56" x2="357" y2="63.5" gradientUnits="userSpaceOnUse">
<stop stop-color="#6935FE"/>
<stop offset="1" stop-color="#F83BFC"/>
</linearGradient>
<clipPath id="clip0">
<rect width="572" height="371" fill="white"/>
</clipPath>
</defs>
</svg>
